<svg xmlns="http://www.w3.org/2000/svg" width="327" height="327" fill="none" viewBox="0 0 327 327">
  <path fill="#D6D6D4" d="M149.938 153.625v117.187a18.753 18.753 0 01-18.75 18.75H51.5a18.726 18.726 0 01-13.262-5.487 18.74 18.74 0 01-5.488-13.263V153.625a18.748 18.748 0 0118.75-18.75h79.688a18.668 18.668 0 019.439 2.543 18.913 18.913 0 016.088 5.689 18.66 18.66 0 013.223 10.518z"/>
  <path fill="#C7C7C5" d="M149.938 153.625v117.187a18.753 18.753 0 01-18.75 18.75H51.5a18.786 18.786 0 01-17.46-11.906c36.526-30.094 76.452-74.894 106.587-140.238a18.913 18.913 0 016.088 5.689 18.66 18.66 0 013.223 10.518z"/>
  <path fill="#BFBFBD" d="M60.875 158.312a4.688 4.688 0 00-9.375 0v107.813a4.687 4.687 0 109.375 0V158.312zM84.313 158.312a4.688 4.688 0 00-9.376 0v107.813a4.687 4.687 0 109.376 0V158.312zM107.75 158.312a4.688 4.688 0 00-9.375 0v107.813a4.687 4.687 0 009.375 0V158.312zM131.188 158.312a4.688 4.688 0 00-9.376 0v107.813a4.687 4.687 0 004.688 4.687 4.687 4.687 0 004.688-4.687V158.312z"/>
  <path fill="#44546C" d="M65.563 303.625c10.355 0 18.75-8.395 18.75-18.75s-8.395-18.75-18.75-18.75c-10.356 0-18.75 8.395-18.75 18.75s8.394 18.75 18.75 18.75zM121.812 303.625a9.378 9.378 0 01-9.374-9.375v-4.688h18.75v4.688a9.376 9.376 0 01-9.376 9.375z"/>
  <path fill="#E0E0DE" d="M107.75 31.75h-37.5a9.375 9.375 0 100 18.75h37.5a9.375 9.375 0 009.375-9.375 9.375 9.375 0 00-9.375-9.375z"/>
  <path fill="#C7C7C5" d="M70.25 50.5h9.375v84.375H70.25V50.5zM98.375 50.5h9.375v84.375h-9.375V50.5z"/>
  <path fill="#BFBFBD" d="M70.25 50.5h9.375v9.375H70.25V50.5zM98.375 50.5h9.375v9.375h-9.375V50.5z"/>
  <path fill="#8F4D2E" d="M248.375 107.641V83.312h-32.813V200.5h32.813l4.83-11.27a40.53 40.53 0 002.289-24.871c-4.199-18.662-7.119-37.589-7.119-56.718zM145.25 148.938a40.531 40.531 0 00-4.83 40.292l4.83 11.27h32.812v-60.938l-9.375-18.75-23.437 28.126z"/>
  <path fill="#FEC9A3" d="M243.688 191.125h-28.126v-37.5h-37.5v37.5h-28.124a23.433 23.433 0 00-16.573 6.865 23.433 23.433 0 00-6.865 16.572v89.063h140.625v-89.063a23.433 23.433 0 00-6.865-16.572 23.433 23.433 0 00-16.572-6.865z"/>
  <path fill="#FEB784" d="M215.562 172.625v-19h-37.5v19a41.833 41.833 0 0037.5 0z"/>
  <path fill="#FEC9A3" d="M239 92.688V125.5a42.19 42.19 0 01-42.188 42.188 42.189 42.189 0 01-42.187-42.188V92.687a37.499 37.499 0 0137.5-37.5h9.375a37.478 37.478 0 0134.652 23.146A37.47 37.47 0 01239 92.688z"/>
  <path fill="#F7A468" d="M196.812 144.25a14.08 14.08 0 01-14.062-14.062h9.375a4.687 4.687 0 009.375 0h9.375a14.08 14.08 0 01-14.063 14.062z"/>
  <path fill="#FEC093" d="M154.625 106.75h75v14.062h-75V106.75z"/>
  <path fill="#FEC093" d="M239 92.688V125.5a42.212 42.212 0 01-15.721 32.837 42.222 42.222 0 01-35.426 8.395 42.198 42.198 0 0030.815-40.634V79.223a42.006 42.006 0 00-6.486-22.489A37.504 37.504 0 01239 92.687z"/>
  <path fill="#95573A" d="M192.125 41.125A46.876 46.876 0 00145.25 88v60.938l14.848-17.818a37.062 37.062 0 008.59-23.725 37.055 37.055 0 0122.007-33.865l20.18-8.967 1.59 3.973A55.136 55.136 0 00239 97.375h9.375V88A46.878 46.878 0 00201.5 41.125h-9.375z"/>
  <path fill="#FEB784" d="M239 97.375h4.688a14.061 14.061 0 019.943 24.006 14.063 14.063 0 01-9.943 4.119H239V97.375z"/>
  <path fill="#E0E0DE" d="M267.125 303.625v-89.063a23.433 23.433 0 00-6.865-16.572 23.433 23.433 0 00-16.572-6.865l-3.149 4.724a52.56 52.56 0 01-43.727 23.401 52.557 52.557 0 01-43.726-23.401l-3.148-4.724a23.433 23.433 0 00-16.573 6.865 23.433 23.433 0 00-6.865 16.572v89.063"/>
  <path fill="#348FD9" d="M267.125 214.563v89.062H126.5v-89.062a23.433 23.433 0 016.865-16.573 23.433 23.433 0 0116.573-6.865h18.75l28.124 75 28.126-75h18.75a23.42 23.42 0 0123.437 23.438z"/>
  <path fill="#3086CD" d="M267.125 214.562v89.063H163.883c37.775-22.154 76.922-54.557 100.213-100.588a23.324 23.324 0 013.029 11.525z"/>
  <path fill="#82462A" d="M215.562 43.278a46.603 46.603 0 00-9.374-1.916v25.284l4.687-2.084 1.59 3.974c.75 1.845 1.6 3.648 2.545 5.401h.552v-30.66z"/>
  <path fill="#2A71AD" d="M173.375 270.812h9.375v9.376h-9.375v-9.376zM247.725 244.99l-8.075 4.77c6.585 11.151 4.882 25.937-4.239 36.786a4.7 4.7 0 00-1.099 3.016v14.063h9.375V291.22c10.699-13.761 12.364-32.126 4.038-46.23zM153.975 249.76l-8.075-4.77c-8.326 14.104-6.661 32.469 4.037 46.23v12.405h9.375v-14.063a4.693 4.693 0 00-1.098-3.016c-9.121-10.849-10.824-25.636-4.239-36.786zM192.125 261.438h9.375v42.187h-9.375v-42.187z"/>
  <path fill="#FFA912" d="M271.812 64.563h-150c-12.944 0-23.437 10.493-23.437 23.437s10.493 23.438 23.437 23.438h150c12.945 0 23.438-10.494 23.438-23.438 0-12.944-10.493-23.438-23.438-23.438z"/>
  <path fill="#FFB531" d="M248.375 78.625V88H145.25v-9.375a51.501 51.501 0 0149.945-51.533c.539-.024 1.078-.03 1.617-.03a51.507 51.507 0 0147.654 31.822 51.508 51.508 0 013.909 19.741z"/>
  <path fill="#FFA912" d="M248.375 78.625V88h-24.533c-7.248-30.803-15.762-48.732-28.647-60.908.539-.024 1.078-.03 1.617-.03a51.564 51.564 0 0151.563 51.563z"/>
  <path fill="#F98500" d="M248.375 78.625V88H145.25v-9.375a51.99 51.99 0 01.85-9.375h101.425a51.99 51.99 0 01.85 9.375z"/>
  <path fill="#E67007" d="M248.375 78.625V88H220.25c-1.254-7.037-2.531-13.242-3.885-18.75h31.16a51.99 51.99 0 01.85 9.375z"/>
</svg>
